<mxfile host="app.diagrams.net" modified="2024-07-10T13:01:49.685Z" agent="Mozilla/5.0 (Macintosh; Intel Mac OS X 10_15_7) AppleWebKit/537.36 (KHTML, like Gecko) Chrome/126.0.0.0 Safari/537.36" etag="iYTKnIJafYGUZWsHcpvJ" version="24.6.4" type="device">
  <diagram name="Страница — 1" id="ax5XP3-n81ga0lNEpEBY">
    <mxGraphModel dx="2649" dy="1711" grid="1" gridSize="10" guides="1" tooltips="1" connect="1" arrows="1" fold="1" page="1" pageScale="1" pageWidth="827" pageHeight="1169" math="0" shadow="0">
      <root>
        <mxCell id="0" />
        <mxCell id="1" parent="0" />
        <mxCell id="Yr5F_tZ_X2INfjsJapxf-1" value="Root&lt;div&gt;Priority Selector&lt;/div&gt;" style="rounded=0;whiteSpace=wrap;html=1;" vertex="1" parent="1">
          <mxGeometry x="-130" y="30" width="120" height="60" as="geometry" />
        </mxCell>
        <mxCell id="Yr5F_tZ_X2INfjsJapxf-2" value="Roam&lt;div&gt;Sequence&lt;/div&gt;" style="rounded=0;whiteSpace=wrap;html=1;" vertex="1" parent="1">
          <mxGeometry x="315" y="200" width="120" height="60" as="geometry" />
        </mxCell>
        <mxCell id="Yr5F_tZ_X2INfjsJapxf-3" value="Roam position != 0&lt;div&gt;Condition&lt;/div&gt;" style="ellipse;whiteSpace=wrap;html=1;" vertex="1" parent="1">
          <mxGeometry x="195" y="300" width="120" height="80" as="geometry" />
        </mxCell>
        <mxCell id="Yr5F_tZ_X2INfjsJapxf-4" value="Move to roam position&lt;div&gt;Node&lt;/div&gt;" style="rounded=0;whiteSpace=wrap;html=1;" vertex="1" parent="1">
          <mxGeometry x="445" y="310" width="120" height="60" as="geometry" />
        </mxCell>
        <mxCell id="Yr5F_tZ_X2INfjsJapxf-5" value="" style="endArrow=classic;html=1;rounded=0;exitX=0.5;exitY=1;exitDx=0;exitDy=0;entryX=0.5;entryY=0;entryDx=0;entryDy=0;" edge="1" parent="1" source="Yr5F_tZ_X2INfjsJapxf-2" target="Yr5F_tZ_X2INfjsJapxf-3">
          <mxGeometry width="50" height="50" relative="1" as="geometry">
            <mxPoint x="265" y="430" as="sourcePoint" />
            <mxPoint x="315" y="380" as="targetPoint" />
            <Array as="points">
              <mxPoint x="375" y="280" />
              <mxPoint x="255" y="280" />
            </Array>
          </mxGeometry>
        </mxCell>
        <mxCell id="Yr5F_tZ_X2INfjsJapxf-6" value="" style="endArrow=classic;html=1;rounded=0;exitX=0.5;exitY=1;exitDx=0;exitDy=0;entryX=0.5;entryY=0;entryDx=0;entryDy=0;" edge="1" parent="1" source="Yr5F_tZ_X2INfjsJapxf-2" target="Yr5F_tZ_X2INfjsJapxf-4">
          <mxGeometry width="50" height="50" relative="1" as="geometry">
            <mxPoint x="335" y="420" as="sourcePoint" />
            <mxPoint x="385" y="370" as="targetPoint" />
            <Array as="points">
              <mxPoint x="375" y="280" />
              <mxPoint x="505" y="280" />
            </Array>
          </mxGeometry>
        </mxCell>
        <mxCell id="Yr5F_tZ_X2INfjsJapxf-7" value="&lt;div&gt;&lt;span style=&quot;background-color: initial;&quot;&gt;DemonMelee&lt;/span&gt;&lt;/div&gt;&lt;div&gt;&lt;span style=&quot;background-color: initial;&quot;&gt;BT&lt;/span&gt;&lt;br&gt;&lt;/div&gt;" style="rounded=0;whiteSpace=wrap;html=1;" vertex="1" parent="1">
          <mxGeometry x="-130" y="-60" width="120" height="60" as="geometry" />
        </mxCell>
        <mxCell id="Yr5F_tZ_X2INfjsJapxf-8" value="" style="endArrow=classic;html=1;rounded=0;exitX=0.5;exitY=1;exitDx=0;exitDy=0;entryX=0.5;entryY=0;entryDx=0;entryDy=0;" edge="1" parent="1" source="Yr5F_tZ_X2INfjsJapxf-7" target="Yr5F_tZ_X2INfjsJapxf-1">
          <mxGeometry width="50" height="50" relative="1" as="geometry">
            <mxPoint x="-110" y="230" as="sourcePoint" />
            <mxPoint x="-60" y="180" as="targetPoint" />
          </mxGeometry>
        </mxCell>
        <mxCell id="Yr5F_tZ_X2INfjsJapxf-9" value="&lt;div&gt;Idle&lt;/div&gt;&lt;div&gt;Node&lt;/div&gt;" style="rounded=0;whiteSpace=wrap;html=1;" vertex="1" parent="1">
          <mxGeometry x="640" y="200" width="120" height="60" as="geometry" />
        </mxCell>
        <mxCell id="Yr5F_tZ_X2INfjsJapxf-10" value="&lt;div&gt;Roam time expired&lt;/div&gt;&lt;div&gt;Condition&lt;/div&gt;" style="ellipse;whiteSpace=wrap;html=1;" vertex="1" parent="1">
          <mxGeometry x="315" y="330" width="120" height="90" as="geometry" />
        </mxCell>
        <mxCell id="Yr5F_tZ_X2INfjsJapxf-11" value="" style="endArrow=classic;html=1;rounded=0;exitX=0.5;exitY=1;exitDx=0;exitDy=0;entryX=0.5;entryY=0;entryDx=0;entryDy=0;" edge="1" parent="1" source="Yr5F_tZ_X2INfjsJapxf-2" target="Yr5F_tZ_X2INfjsJapxf-12">
          <mxGeometry width="50" height="50" relative="1" as="geometry">
            <mxPoint x="355" y="400" as="sourcePoint" />
            <mxPoint x="395" y="300" as="targetPoint" />
          </mxGeometry>
        </mxCell>
        <mxCell id="Yr5F_tZ_X2INfjsJapxf-12" value="Invertor" style="rhombus;whiteSpace=wrap;html=1;" vertex="1" parent="1">
          <mxGeometry x="345" y="300" width="60" height="60" as="geometry" />
        </mxCell>
        <mxCell id="Yr5F_tZ_X2INfjsJapxf-13" value="Combat&lt;div&gt;Selector&lt;/div&gt;" style="rounded=0;whiteSpace=wrap;html=1;" vertex="1" parent="1">
          <mxGeometry x="-60" y="310" width="120" height="60" as="geometry" />
        </mxCell>
        <mxCell id="Yr5F_tZ_X2INfjsJapxf-14" value="Attack&lt;div&gt;Sequence&lt;/div&gt;" style="rounded=0;whiteSpace=wrap;html=1;" vertex="1" parent="1">
          <mxGeometry x="-217.5" y="460" width="120" height="60" as="geometry" />
        </mxCell>
        <mxCell id="Yr5F_tZ_X2INfjsJapxf-15" value="Target in attack range&lt;div&gt;Condition&lt;/div&gt;" style="ellipse;whiteSpace=wrap;html=1;" vertex="1" parent="1">
          <mxGeometry x="-337.5" y="560" width="120" height="80" as="geometry" />
        </mxCell>
        <mxCell id="Yr5F_tZ_X2INfjsJapxf-16" value="" style="endArrow=classic;html=1;rounded=0;entryX=0.5;entryY=0;entryDx=0;entryDy=0;exitX=0.5;exitY=1;exitDx=0;exitDy=0;" edge="1" parent="1" source="Yr5F_tZ_X2INfjsJapxf-14" target="Yr5F_tZ_X2INfjsJapxf-15">
          <mxGeometry width="50" height="50" relative="1" as="geometry">
            <mxPoint x="-217.5" y="540" as="sourcePoint" />
            <mxPoint x="-67.5" y="580" as="targetPoint" />
            <Array as="points">
              <mxPoint x="-157.5" y="540" />
              <mxPoint x="-277.5" y="540" />
            </Array>
          </mxGeometry>
        </mxCell>
        <mxCell id="Yr5F_tZ_X2INfjsJapxf-17" value="Attack off cooldown&lt;div&gt;Condition&lt;/div&gt;" style="ellipse;whiteSpace=wrap;html=1;" vertex="1" parent="1">
          <mxGeometry x="-202.5" y="560" width="120" height="80" as="geometry" />
        </mxCell>
        <mxCell id="Yr5F_tZ_X2INfjsJapxf-18" value="" style="endArrow=classic;html=1;rounded=0;entryX=0.5;entryY=0;entryDx=0;entryDy=0;" edge="1" parent="1" target="Yr5F_tZ_X2INfjsJapxf-17">
          <mxGeometry width="50" height="50" relative="1" as="geometry">
            <mxPoint x="-157.5" y="520" as="sourcePoint" />
            <mxPoint x="-67.5" y="580" as="targetPoint" />
            <Array as="points">
              <mxPoint x="-157.5" y="540" />
              <mxPoint x="-142.5" y="540" />
            </Array>
          </mxGeometry>
        </mxCell>
        <mxCell id="Yr5F_tZ_X2INfjsJapxf-19" value="Attack&lt;div&gt;Node&lt;/div&gt;" style="rounded=0;whiteSpace=wrap;html=1;" vertex="1" parent="1">
          <mxGeometry x="-62.5" y="570" width="120" height="60" as="geometry" />
        </mxCell>
        <mxCell id="Yr5F_tZ_X2INfjsJapxf-20" value="" style="endArrow=classic;html=1;rounded=0;exitX=0.5;exitY=1;exitDx=0;exitDy=0;entryX=0.5;entryY=0;entryDx=0;entryDy=0;" edge="1" parent="1" source="Yr5F_tZ_X2INfjsJapxf-14" target="Yr5F_tZ_X2INfjsJapxf-19">
          <mxGeometry width="50" height="50" relative="1" as="geometry">
            <mxPoint x="12.5" y="620" as="sourcePoint" />
            <mxPoint x="62.5" y="570" as="targetPoint" />
            <Array as="points">
              <mxPoint x="-157.5" y="540" />
              <mxPoint x="-2.5" y="540" />
            </Array>
          </mxGeometry>
        </mxCell>
        <mxCell id="Yr5F_tZ_X2INfjsJapxf-21" value="Chase&lt;div&gt;Sequence&lt;/div&gt;" style="rounded=0;whiteSpace=wrap;html=1;" vertex="1" parent="1">
          <mxGeometry x="127.5" y="460" width="120" height="60" as="geometry" />
        </mxCell>
        <mxCell id="Yr5F_tZ_X2INfjsJapxf-22" value="Target in chase range&lt;div&gt;Condition&lt;/div&gt;" style="ellipse;whiteSpace=wrap;html=1;" vertex="1" parent="1">
          <mxGeometry x="77.5" y="560" width="120" height="80" as="geometry" />
        </mxCell>
        <mxCell id="Yr5F_tZ_X2INfjsJapxf-23" value="Chase&lt;div&gt;Node&lt;/div&gt;" style="rounded=0;whiteSpace=wrap;html=1;" vertex="1" parent="1">
          <mxGeometry x="217.5" y="570" width="120" height="60" as="geometry" />
        </mxCell>
        <mxCell id="Yr5F_tZ_X2INfjsJapxf-24" value="" style="endArrow=classic;html=1;rounded=0;exitX=0.5;exitY=1;exitDx=0;exitDy=0;entryX=0.5;entryY=0;entryDx=0;entryDy=0;" edge="1" parent="1" source="Yr5F_tZ_X2INfjsJapxf-21" target="Yr5F_tZ_X2INfjsJapxf-22">
          <mxGeometry width="50" height="50" relative="1" as="geometry">
            <mxPoint x="137.5" y="610" as="sourcePoint" />
            <mxPoint x="187.5" y="560" as="targetPoint" />
            <Array as="points">
              <mxPoint x="187.5" y="540" />
              <mxPoint x="137.5" y="540" />
            </Array>
          </mxGeometry>
        </mxCell>
        <mxCell id="Yr5F_tZ_X2INfjsJapxf-25" value="" style="endArrow=classic;html=1;rounded=0;exitX=0.5;exitY=1;exitDx=0;exitDy=0;entryX=0.5;entryY=0;entryDx=0;entryDy=0;" edge="1" parent="1" source="Yr5F_tZ_X2INfjsJapxf-21" target="Yr5F_tZ_X2INfjsJapxf-23">
          <mxGeometry width="50" height="50" relative="1" as="geometry">
            <mxPoint x="237.5" y="610" as="sourcePoint" />
            <mxPoint x="287.5" y="560" as="targetPoint" />
            <Array as="points">
              <mxPoint x="187.5" y="540" />
              <mxPoint x="277.5" y="540" />
            </Array>
          </mxGeometry>
        </mxCell>
        <mxCell id="Yr5F_tZ_X2INfjsJapxf-26" value="Combat&lt;div&gt;Sequence&lt;/div&gt;" style="rounded=0;whiteSpace=wrap;html=1;" vertex="1" parent="1">
          <mxGeometry x="-130" y="200" width="120" height="60" as="geometry" />
        </mxCell>
        <mxCell id="Yr5F_tZ_X2INfjsJapxf-27" value="Target exists&lt;div&gt;Condition&lt;/div&gt;" style="ellipse;whiteSpace=wrap;html=1;" vertex="1" parent="1">
          <mxGeometry x="-210" y="300" width="120" height="80" as="geometry" />
        </mxCell>
        <mxCell id="Yr5F_tZ_X2INfjsJapxf-28" value="" style="endArrow=classic;html=1;rounded=0;exitX=0.5;exitY=1;exitDx=0;exitDy=0;entryX=0.5;entryY=0;entryDx=0;entryDy=0;" edge="1" parent="1" source="Yr5F_tZ_X2INfjsJapxf-26" target="Yr5F_tZ_X2INfjsJapxf-27">
          <mxGeometry width="50" height="50" relative="1" as="geometry">
            <mxPoint x="90" y="360" as="sourcePoint" />
            <mxPoint x="140" y="310" as="targetPoint" />
            <Array as="points">
              <mxPoint x="-70" y="280" />
              <mxPoint x="-150" y="280" />
            </Array>
          </mxGeometry>
        </mxCell>
        <mxCell id="Yr5F_tZ_X2INfjsJapxf-29" value="" style="endArrow=classic;html=1;rounded=0;exitX=0.5;exitY=1;exitDx=0;exitDy=0;entryX=0.5;entryY=0;entryDx=0;entryDy=0;" edge="1" parent="1" source="Yr5F_tZ_X2INfjsJapxf-26" target="Yr5F_tZ_X2INfjsJapxf-13">
          <mxGeometry width="50" height="50" relative="1" as="geometry">
            <mxPoint x="100" y="350" as="sourcePoint" />
            <mxPoint x="150" y="300" as="targetPoint" />
            <Array as="points">
              <mxPoint x="-70" y="280" />
              <mxPoint y="280" />
            </Array>
          </mxGeometry>
        </mxCell>
        <mxCell id="Yr5F_tZ_X2INfjsJapxf-30" value="" style="endArrow=classic;html=1;rounded=0;exitX=0.5;exitY=1;exitDx=0;exitDy=0;entryX=0.5;entryY=0;entryDx=0;entryDy=0;" edge="1" parent="1" source="Yr5F_tZ_X2INfjsJapxf-13" target="Yr5F_tZ_X2INfjsJapxf-14">
          <mxGeometry width="50" height="50" relative="1" as="geometry">
            <mxPoint x="70" y="480" as="sourcePoint" />
            <mxPoint x="120" y="430" as="targetPoint" />
            <Array as="points">
              <mxPoint y="400" />
              <mxPoint x="-157" y="400" />
            </Array>
          </mxGeometry>
        </mxCell>
        <mxCell id="Yr5F_tZ_X2INfjsJapxf-31" value="" style="endArrow=classic;html=1;rounded=0;exitX=0.5;exitY=1;exitDx=0;exitDy=0;entryX=0.5;entryY=0;entryDx=0;entryDy=0;" edge="1" parent="1" source="Yr5F_tZ_X2INfjsJapxf-13" target="Yr5F_tZ_X2INfjsJapxf-21">
          <mxGeometry width="50" height="50" relative="1" as="geometry">
            <mxPoint x="120" y="490" as="sourcePoint" />
            <mxPoint x="170" y="440" as="targetPoint" />
            <Array as="points">
              <mxPoint y="400" />
              <mxPoint x="190" y="400" />
            </Array>
          </mxGeometry>
        </mxCell>
        <mxCell id="Yr5F_tZ_X2INfjsJapxf-32" value="Spawn&lt;div&gt;Sequence&lt;/div&gt;" style="rounded=0;whiteSpace=wrap;html=1;" vertex="1" parent="1">
          <mxGeometry x="-1080" y="200" width="120" height="60" as="geometry" />
        </mxCell>
        <mxCell id="Yr5F_tZ_X2INfjsJapxf-33" value="&lt;div&gt;&lt;span style=&quot;background-color: initial;&quot;&gt;Enemy Spawned&lt;/span&gt;&lt;/div&gt;&lt;div&gt;&lt;span style=&quot;background-color: initial;&quot;&gt;Condition&lt;/span&gt;&lt;br&gt;&lt;/div&gt;" style="ellipse;whiteSpace=wrap;html=1;" vertex="1" parent="1">
          <mxGeometry x="-1180" y="320" width="120" height="90" as="geometry" />
        </mxCell>
        <mxCell id="Yr5F_tZ_X2INfjsJapxf-34" value="Inverter" style="rhombus;whiteSpace=wrap;html=1;" vertex="1" parent="1">
          <mxGeometry x="-1150" y="290" width="60" height="60" as="geometry" />
        </mxCell>
        <mxCell id="Yr5F_tZ_X2INfjsJapxf-35" value="&lt;div&gt;Idle&lt;/div&gt;&lt;div&gt;Node&lt;/div&gt;" style="rounded=0;whiteSpace=wrap;html=1;" vertex="1" parent="1">
          <mxGeometry x="-990" y="335" width="120" height="60" as="geometry" />
        </mxCell>
        <mxCell id="Yr5F_tZ_X2INfjsJapxf-36" value="" style="endArrow=classic;html=1;rounded=0;exitX=0.5;exitY=1;exitDx=0;exitDy=0;entryX=0.5;entryY=0;entryDx=0;entryDy=0;" edge="1" parent="1" source="Yr5F_tZ_X2INfjsJapxf-32" target="Yr5F_tZ_X2INfjsJapxf-34">
          <mxGeometry width="50" height="50" relative="1" as="geometry">
            <mxPoint x="-980" y="380" as="sourcePoint" />
            <mxPoint x="-930" y="330" as="targetPoint" />
            <Array as="points">
              <mxPoint x="-1020" y="280" />
              <mxPoint x="-1120" y="280" />
            </Array>
          </mxGeometry>
        </mxCell>
        <mxCell id="Yr5F_tZ_X2INfjsJapxf-37" value="" style="endArrow=classic;html=1;rounded=0;exitX=0.5;exitY=1;exitDx=0;exitDy=0;entryX=0.5;entryY=0;entryDx=0;entryDy=0;" edge="1" parent="1" source="Yr5F_tZ_X2INfjsJapxf-32" target="Yr5F_tZ_X2INfjsJapxf-35">
          <mxGeometry width="50" height="50" relative="1" as="geometry">
            <mxPoint x="-980" y="380" as="sourcePoint" />
            <mxPoint x="-920" y="300" as="targetPoint" />
            <Array as="points">
              <mxPoint x="-1020" y="280" />
              <mxPoint x="-930" y="280" />
            </Array>
          </mxGeometry>
        </mxCell>
        <mxCell id="Yr5F_tZ_X2INfjsJapxf-38" value="" style="endArrow=classic;html=1;rounded=0;exitX=0.5;exitY=1;exitDx=0;exitDy=0;entryX=0.5;entryY=0;entryDx=0;entryDy=0;" edge="1" parent="1" source="Yr5F_tZ_X2INfjsJapxf-1" target="Yr5F_tZ_X2INfjsJapxf-32">
          <mxGeometry width="50" height="50" relative="1" as="geometry">
            <mxPoint x="-140" y="230" as="sourcePoint" />
            <mxPoint x="-90" y="180" as="targetPoint" />
            <Array as="points">
              <mxPoint x="-70" y="150" />
              <mxPoint x="-1020" y="140" />
            </Array>
          </mxGeometry>
        </mxCell>
        <mxCell id="Yr5F_tZ_X2INfjsJapxf-39" value="" style="endArrow=classic;html=1;rounded=0;exitX=0.5;exitY=1;exitDx=0;exitDy=0;entryX=0.5;entryY=0;entryDx=0;entryDy=0;" edge="1" parent="1" source="Yr5F_tZ_X2INfjsJapxf-1" target="Yr5F_tZ_X2INfjsJapxf-26">
          <mxGeometry width="50" height="50" relative="1" as="geometry">
            <mxPoint x="-140" y="230" as="sourcePoint" />
            <mxPoint x="-90" y="180" as="targetPoint" />
          </mxGeometry>
        </mxCell>
        <mxCell id="Yr5F_tZ_X2INfjsJapxf-40" value="" style="endArrow=classic;html=1;rounded=0;exitX=0.5;exitY=1;exitDx=0;exitDy=0;entryX=0.5;entryY=0;entryDx=0;entryDy=0;" edge="1" parent="1" source="Yr5F_tZ_X2INfjsJapxf-1" target="Yr5F_tZ_X2INfjsJapxf-2">
          <mxGeometry width="50" height="50" relative="1" as="geometry">
            <mxPoint x="120" y="250" as="sourcePoint" />
            <mxPoint x="170" y="200" as="targetPoint" />
            <Array as="points">
              <mxPoint x="-70" y="150" />
              <mxPoint x="375" y="150" />
            </Array>
          </mxGeometry>
        </mxCell>
        <mxCell id="Yr5F_tZ_X2INfjsJapxf-41" value="" style="endArrow=classic;html=1;rounded=0;exitX=0.5;exitY=1;exitDx=0;exitDy=0;entryX=0.5;entryY=0;entryDx=0;entryDy=0;" edge="1" parent="1" source="Yr5F_tZ_X2INfjsJapxf-1" target="Yr5F_tZ_X2INfjsJapxf-9">
          <mxGeometry width="50" height="50" relative="1" as="geometry">
            <mxPoint x="50" y="230" as="sourcePoint" />
            <mxPoint x="100" y="180" as="targetPoint" />
            <Array as="points">
              <mxPoint x="-70" y="150" />
              <mxPoint x="700" y="150" />
            </Array>
          </mxGeometry>
        </mxCell>
        <mxCell id="Yr5F_tZ_X2INfjsJapxf-42" value="Target in attack range&lt;div&gt;Condition&lt;/div&gt;" style="ellipse;whiteSpace=wrap;html=1;" vertex="1" parent="1">
          <mxGeometry x="-800" y="575" width="120" height="80" as="geometry" />
        </mxCell>
        <mxCell id="Yr5F_tZ_X2INfjsJapxf-43" value="&lt;div&gt;Ability off cooldown&lt;/div&gt;&lt;div&gt;Condition&lt;/div&gt;" style="ellipse;whiteSpace=wrap;html=1;" vertex="1" parent="1">
          <mxGeometry x="-665" y="575" width="120" height="80" as="geometry" />
        </mxCell>
        <mxCell id="Yr5F_tZ_X2INfjsJapxf-44" value="&lt;div&gt;Cast Dash to target&lt;/div&gt;&lt;div&gt;Node&lt;/div&gt;" style="rounded=0;whiteSpace=wrap;html=1;" vertex="1" parent="1">
          <mxGeometry x="-525" y="585" width="120" height="60" as="geometry" />
        </mxCell>
        <mxCell id="Yr5F_tZ_X2INfjsJapxf-45" value="Dash&lt;div&gt;Sequence&lt;/div&gt;" style="rounded=0;whiteSpace=wrap;html=1;" vertex="1" parent="1">
          <mxGeometry x="-665" y="460" width="120" height="60" as="geometry" />
        </mxCell>
        <mxCell id="Yr5F_tZ_X2INfjsJapxf-46" value="Inverter" style="rhombus;whiteSpace=wrap;html=1;" vertex="1" parent="1">
          <mxGeometry x="-770" y="545" width="60" height="60" as="geometry" />
        </mxCell>
        <mxCell id="Yr5F_tZ_X2INfjsJapxf-47" value="" style="endArrow=classic;html=1;rounded=0;exitX=0.5;exitY=1;exitDx=0;exitDy=0;entryX=0.5;entryY=0;entryDx=0;entryDy=0;" edge="1" parent="1" source="Yr5F_tZ_X2INfjsJapxf-45" target="Yr5F_tZ_X2INfjsJapxf-46">
          <mxGeometry width="50" height="50" relative="1" as="geometry">
            <mxPoint x="-520" y="550" as="sourcePoint" />
            <mxPoint x="-470" y="500" as="targetPoint" />
            <Array as="points">
              <mxPoint x="-605" y="530" />
              <mxPoint x="-740" y="530" />
            </Array>
          </mxGeometry>
        </mxCell>
        <mxCell id="Yr5F_tZ_X2INfjsJapxf-48" value="" style="endArrow=classic;html=1;rounded=0;exitX=0.5;exitY=1;exitDx=0;exitDy=0;entryX=0.5;entryY=0;entryDx=0;entryDy=0;" edge="1" parent="1" source="Yr5F_tZ_X2INfjsJapxf-45" target="Yr5F_tZ_X2INfjsJapxf-43">
          <mxGeometry width="50" height="50" relative="1" as="geometry">
            <mxPoint x="-560" y="560" as="sourcePoint" />
            <mxPoint x="-510" y="510" as="targetPoint" />
          </mxGeometry>
        </mxCell>
        <mxCell id="Yr5F_tZ_X2INfjsJapxf-49" value="" style="endArrow=classic;html=1;rounded=0;exitX=0.5;exitY=1;exitDx=0;exitDy=0;entryX=0.5;entryY=0;entryDx=0;entryDy=0;" edge="1" parent="1" source="Yr5F_tZ_X2INfjsJapxf-45" target="Yr5F_tZ_X2INfjsJapxf-44">
          <mxGeometry width="50" height="50" relative="1" as="geometry">
            <mxPoint x="-540" y="560" as="sourcePoint" />
            <mxPoint x="-490" y="510" as="targetPoint" />
            <Array as="points">
              <mxPoint x="-605" y="530" />
              <mxPoint x="-465" y="530" />
            </Array>
          </mxGeometry>
        </mxCell>
        <mxCell id="Yr5F_tZ_X2INfjsJapxf-50" value="" style="endArrow=classic;html=1;rounded=0;exitX=0.5;exitY=1;exitDx=0;exitDy=0;entryX=0.5;entryY=0;entryDx=0;entryDy=0;" edge="1" parent="1" source="Yr5F_tZ_X2INfjsJapxf-13" target="Yr5F_tZ_X2INfjsJapxf-45">
          <mxGeometry width="50" height="50" relative="1" as="geometry">
            <mxPoint x="-400" y="460" as="sourcePoint" />
            <mxPoint x="-350" y="410" as="targetPoint" />
            <Array as="points">
              <mxPoint y="400" />
              <mxPoint x="-605" y="400" />
            </Array>
          </mxGeometry>
        </mxCell>
      </root>
    </mxGraphModel>
  </diagram>
</mxfile>
